<?xml version="1.0" encoding="utf-8"?>
<!-- Generator: Adobe Illustrator 26.3.1, SVG Export Plug-In . SVG Version: 6.00 Build 0)  -->
<svg version="1.1" id="Layer_1" xmlns="http://www.w3.org/2000/svg" xmlns:xlink="http://www.w3.org/1999/xlink" x="0px" y="0px"
	 viewBox="0 0 48 48" style="enable-background:new 0 0 48 48;" xml:space="preserve">
<style type="text/css">
	.st0{fill:none;stroke:#00446B;stroke-width:1.5;stroke-miterlimit:10;}
</style>
<path class="st0" d="M40.13,7.88C35.82,3.58,30.09,1.21,24,1.21S12.18,3.58,7.87,7.88C3.57,12.19,1.2,17.91,1.2,24
	c0,6.09,2.37,11.81,6.68,16.12c4.31,4.3,10.03,6.68,16.13,6.68c6.09,0,11.82-2.37,16.13-6.68c4.31-4.3,6.68-10.03,6.68-16.12
	C46.81,17.91,44.43,12.19,40.13,7.88z"/>
<path class="st0" d="M24,5.52C13.81,5.52,5.51,13.81,5.51,24c0,10.19,8.29,18.48,18.49,18.48S42.49,34.19,42.49,24
	C42.49,13.81,34.19,5.52,24,5.52z"/>
<path class="st0" d="M28.23,15.31C28.23,15.32,28.23,15.32,28.23,15.31c1.3,0.33,2.87,1,3.27,1.69c0.31,0.54,0.89,0.87,1.51,0.87
	c0.3,0,0.6-0.08,0.87-0.23c0.83-0.48,1.12-1.55,0.64-2.38c-1.3-2.25-5.01-3.22-5.43-3.33c-0.14-0.04-0.29-0.05-0.43-0.05
	c-0.8,0-1.49,0.54-1.69,1.31C26.73,14.13,27.3,15.08,28.23,15.31z"/>
<path class="st0" d="M14.66,18.69c0.39-0.68,1.94-1.34,3.21-1.66c0,0,0.01,0,0.01,0c0.91-0.23,1.47-1.17,1.23-2.08
	c-0.19-0.76-0.88-1.29-1.66-1.29c-0.14,0-0.29,0.02-0.42,0.05c-0.41,0.1-4.06,1.06-5.34,3.27c-0.23,0.4-0.29,0.86-0.17,1.3
	c0.12,0.44,0.4,0.81,0.8,1.04c0.26,0.15,0.55,0.23,0.85,0.23C13.79,19.55,14.36,19.22,14.66,18.69z"/>
<path class="st0" d="M24.7,26.39c0.27-1.09,0.99-3,1.79-3.46c0.88-0.51,1.19-1.64,0.68-2.52c-0.33-0.57-0.94-0.93-1.6-0.93
	c-0.32,0-0.64,0.09-0.92,0.25c-2.38,1.37-3.42,5.3-3.54,5.75c0,0,0,0,0,0c-0.12,0.48-0.05,0.98,0.2,1.4
	c0.25,0.42,0.65,0.73,1.13,0.85c0.15,0.04,0.3,0.06,0.46,0.06C23.75,27.78,24.49,27.21,24.7,26.39z"/>
<path class="st0" d="M34.61,28.74c-0.77-0.44-1.44-2.32-1.64-3.17c0,0,0-0.01,0-0.01c-0.19-0.75-0.87-1.28-1.64-1.28
	c-0.14,0-0.28,0.02-0.42,0.05c-0.44,0.11-0.81,0.39-1.04,0.78c-0.23,0.39-0.3,0.85-0.18,1.28l0,0c0.11,0.44,1.06,4.02,3.24,5.28
	c0.26,0.15,0.55,0.22,0.84,0.22c0.61,0,1.17-0.33,1.47-0.85C35.7,30.25,35.42,29.21,34.61,28.74z"/>
<path class="st0" d="M14.9,29.36c-0.28-0.16-0.6-0.25-0.92-0.25c-0.66,0-1.27,0.36-1.6,0.93c-0.25,0.43-0.31,0.93-0.18,1.4
	c0.13,0.48,0.44,0.87,0.86,1.12c0.8,0.46,1.52,2.37,1.79,3.46c0.21,0.82,0.95,1.39,1.79,1.39c0,0,0,0,0,0
	c0.15,0,0.31-0.02,0.46-0.06c0.48-0.12,0.88-0.42,1.13-0.85c0.25-0.42,0.32-0.92,0.2-1.39C18.33,34.67,17.3,30.74,14.9,29.36z"/>
<path class="st0" d="M16.78,21.98c-1.08,0-1.95,0.87-1.95,1.95c0,1.07,0.87,1.95,1.95,1.95c1.08,0,1.95-0.87,1.95-1.95
	C18.73,22.86,17.86,21.98,16.78,21.98z"/>
<path class="st0" d="M24.72,11.68c0-1.25-1.01-2.26-2.26-2.26c-1.25,0-2.26,1.01-2.26,2.26c0,1.25,1.01,2.26,2.26,2.26
	C23.71,13.94,24.72,12.92,24.72,11.68z"/>
<path class="st0" d="M26.5,31.39c-1.24,0-2.24,1.01-2.24,2.24c0,1.24,1.01,2.24,2.24,2.24c1.24,0,2.24-1.01,2.24-2.24
	C28.75,32.4,27.74,31.39,26.5,31.39z"/>
<path class="st0" d="M36.63,19.54c-1.2,0-2.17,0.97-2.17,2.17c0,1.2,0.97,2.17,2.17,2.17c1.2,0,2.17-0.97,2.17-2.17
	C38.8,20.51,37.82,19.54,36.63,19.54z"/>
</svg>
