<?xml version="1.0" encoding="utf-8"?>
<!-- Generator: Adobe Illustrator 26.3.1, SVG Export Plug-In . SVG Version: 6.00 Build 0)  -->
<svg version="1.1" id="Layer_1" xmlns="http://www.w3.org/2000/svg" xmlns:xlink="http://www.w3.org/1999/xlink" x="0px" y="0px"
	 viewBox="0 0 48 48" style="enable-background:new 0 0 48 48;" xml:space="preserve">
<style type="text/css">
	.st0{fill:#00446B;stroke:#00446B;stroke-miterlimit:10;}
	.st1{fill:none;stroke:#FFFFFF;stroke-miterlimit:10;}
	.st2{fill:#00446B;stroke:#FFFFFF;stroke-miterlimit:10;}
	.st3{fill:none;stroke:#FFFFFF;stroke-width:1.5;stroke-linecap:round;stroke-linejoin:round;stroke-miterlimit:10;}
	.st4{fill:#FFFFFF;}
</style>
<path class="st0" d="M46.85,37.99l-3.33-3.33c-0.65-0.65-0.84-1.63-0.47-2.47c1.51-3.44,2.11-7.37,1.46-11.49
	C43.09,11.74,35.67,4.7,26.67,3.7c-8.38-0.93-15.88,3.23-19.83,9.77c-0.26,0.44-0.63,0.8-1.07,1.07c-2.96,1.86-4.93,5.16-4.93,8.91
	c0,3.48,1.69,6.55,4.29,8.47c0.36,0.26,0.65,0.6,0.84,1c3.31,6.81,10.29,11.52,18.37,11.52c4.31,0,8.3-1.34,11.6-3.62
	c0.9-0.62,2.11-0.53,2.89,0.24l2.48,2.48c0.42,0.42,1.1,0.42,1.52,0l4.03-4.03C47.27,39.09,47.27,38.41,46.85,37.99z"/>
<path class="st1" d="M8.4,18.58c2.23-6.78,8.49-11.6,16.01-11.6c9.38,0,16.98,7.6,16.98,16.98s-7.6,16.98-16.98,16.98
	c-7.78,0-14.15-5.04-16.15-12.18"/>
<path class="st2" d="M24.68,7.13c-7.25,0-13.41,4.61-15.75,11.05c0.02,0,0.04-0.01,0.06-0.01c2.21,0,2.51,2.45,2.51,5.47
	s-0.3,5.47-2.51,5.47c-0.09,0-0.17-0.03-0.25-0.04c2.18,6.73,8.49,11.6,15.95,11.6c9.26,0,16.77-7.51,16.77-16.77
	C41.45,14.63,33.95,7.13,24.68,7.13z"/>
<path class="st3" d="M35.66,11.61c0,0-5.56,0.03-7.18,2.66l-0.79,1.76"/>
<line class="st3" x1="33.45" y1="16.79" x2="31.07" y2="12.51"/>
<path class="st3" d="M26.1,35.01c0,0,1.79-2.31,4.87-1.41c3.07,0.9,4.34,1.61,5.93,1.41"/>
<path class="st3" d="M31.76,30.21c0.1,0.28,0.79,3.59,0.79,3.59"/>
<path class="st3" d="M21.47,13.96c0,0,1.86,0.66,4.52,5.14s3.28,4.66,3.28,4.66s1.61,1.64,5.39,1.3c0.75-0.07,1.49-0.27,2.19-0.57
	c1.13-0.48,3.01-1.16,4.26-0.71"/>
<path class="st3" d="M18.99,31.11c0,0,3.55,0.79,5.49-2.17s5.62-4.52,5.62-4.52"/>
<line class="st3" x1="19.65" y1="18.62" x2="25.65" y2="18.79"/>
<line class="st3" x1="20.85" y1="26.8" x2="24.79" y2="28.14"/>
<path class="st4" d="M11.5,23.64c0,3.02-0.3,5.47-2.51,5.47s-4-2.45-4-5.47s1.79-5.47,4-5.47S11.5,20.62,11.5,23.64z"/>
</svg>
