<?xml version="1.0" encoding="utf-8"?>
<!-- Generator: Adobe Illustrator 26.3.1, SVG Export Plug-In . SVG Version: 6.00 Build 0)  -->
<svg version="1.1" id="Layer_1" xmlns="http://www.w3.org/2000/svg" xmlns:xlink="http://www.w3.org/1999/xlink" x="0px" y="0px"
	 viewBox="0 0 48 48" style="enable-background:new 0 0 48 48;" xml:space="preserve">
<style type="text/css">
	.st0{fill:none;stroke:#00446B;stroke-width:1.5;stroke-linecap:round;stroke-linejoin:round;stroke-miterlimit:10;}
	.st1{fill:#00446B;}
</style>
<line class="st0" x1="2.59" y1="8.22" x2="46.45" y2="8.22"/>
<line class="st0" x1="2.59" y1="39.78" x2="46.45" y2="39.78"/>
<circle class="st1" cx="6.83" cy="15.74" r="2.27"/>
<circle class="st1" cx="14.11" cy="15.74" r="2.27"/>
<circle class="st1" cx="21.39" cy="15.74" r="2.27"/>
<circle class="st1" cx="28.67" cy="15.74" r="2.27"/>
<circle class="st1" cx="35.71" cy="15.74" r="2.27"/>
<circle class="st1" cx="42.44" cy="15.74" r="2.27"/>
<line class="st0" x1="3.66" y1="22" x2="3.66" y2="30.83"/>
<line class="st0" x1="9.39" y1="22" x2="9.39" y2="30.83"/>
<line class="st0" x1="15.12" y1="22" x2="15.12" y2="30.83"/>
<line class="st0" x1="20.85" y1="22" x2="20.85" y2="30.83"/>
<line class="st0" x1="26.58" y1="22" x2="26.58" y2="30.83"/>
<line class="st0" x1="32.31" y1="22" x2="32.31" y2="30.83"/>
<line class="st0" x1="38.03" y1="22" x2="38.03" y2="30.83"/>
<line class="st0" x1="43.76" y1="22" x2="43.76" y2="30.83"/>
<rect x="2.95" y="32.8" class="st1" width="4.18" height="4.18"/>
<rect x="8.68" y="32.8" class="st1" width="4.18" height="4.18"/>
<rect x="19.54" y="32.8" class="st1" width="4.18" height="4.18"/>
<rect x="13.99" y="32.8" class="st1" width="4.18" height="4.18"/>
<rect x="24.97" y="32.8" class="st1" width="4.18" height="4.18"/>
<rect x="30.22" y="32.8" class="st1" width="4.18" height="4.18"/>
<rect x="36.01" y="32.8" class="st1" width="4.18" height="4.18"/>
<rect x="41.44" y="32.8" class="st1" width="4.18" height="4.18"/>
</svg>
