<?xml version="1.0" encoding="utf-8"?>
<!-- Generator: Adobe Illustrator 26.3.1, SVG Export Plug-In . SVG Version: 6.00 Build 0)  -->
<svg version="1.1" id="Layer_1" xmlns="http://www.w3.org/2000/svg" xmlns:xlink="http://www.w3.org/1999/xlink" x="0px" y="0px"
	 viewBox="0 0 48 48" style="enable-background:new 0 0 48 48;" xml:space="preserve">
<style type="text/css">
	.st0{fill:#ADDFED;}
	.st1{fill:none;stroke:#00446B;stroke-width:1.5;stroke-linecap:round;stroke-linejoin:round;stroke-miterlimit:10;}
	.st2{fill:#FFFFFF;stroke:#00446B;stroke-width:1.5;stroke-linecap:round;stroke-linejoin:round;stroke-miterlimit:10;}
</style>
<path class="st0" d="M42.46,34.3L42.46,34.3c0-10.2-8.27-18.47-18.47-18.48v0c0,0,0,0-0.01,0s0,0-0.01,0v0
	C13.78,15.83,5.52,24.1,5.52,34.3v0H42.46z"/>
<line class="st1" x1="24" y1="16.44" x2="24" y2="20.05"/>
<path class="st1" d="M42.31,34.3c0-5.03-2.04-9.59-5.33-12.9c-0.02-0.02-0.02-0.04-0.04-0.05c-0.02-0.02-0.04-0.02-0.05-0.04
	c-3.31-3.29-7.87-5.33-12.9-5.33s-9.59,2.04-12.9,5.33c-0.02,0.01-0.04,0.02-0.05,0.04c-0.02,0.02-0.02,0.04-0.04,0.05
	c-3.29,3.31-5.33,7.87-5.33,12.9"/>
<circle class="st2" cx="24" cy="34.3" r="2.28"/>
<line class="st1" x1="24" y1="32.02" x2="24" y2="25.1"/>
<line class="st1" x1="34.19" y1="24.14" x2="36.55" y2="21.52"/>
<line class="st1" x1="13.91" y1="24.14" x2="11.55" y2="21.52"/>
<line class="st1" x1="38.39" y1="34.38" x2="42.2" y2="34.36"/>
<line class="st1" x1="5.75" y1="34.29" x2="9.75" y2="34.29"/>
<path class="st1" d="M46.89,34.3c0-12.62-10.27-22.88-22.89-22.88c-12.49,0-22.68,10.05-22.89,22.5"/>
</svg>
